<?xml version="1.0" encoding="UTF-8" standalone="no"?>
<!DOCTYPE svg PUBLIC "-//W3C//DTD SVG 1.1//EN" "http://www.w3.org/Graphics/SVG/1.1/DTD/svg11.dtd">
<svg xmlns="http://www.w3.org/2000/svg" version="1.1" viewBox="0.00 0.00 452.00 123.00">
<g stroke-width="5.00" fill="none" stroke-linecap="butt">
<path stroke="#2b2a2b" stroke-opacity="0.996" vector-effect="non-scaling-stroke" d="
  M 203.27 104.74
  Q 203.42 104.76 203.54 104.77
  Q 203.85 104.77 203.97 104.50
  Q 204.58 103.14 203.96 102.42
  Q 203.63 102.04 203.18 102.29
  Q 201.17 103.41 202.06 104.24"
/>
<path stroke="#2b2a2b" stroke-opacity="0.996" vector-effect="non-scaling-stroke" d="
  M 285.41 104.55
  Q 286.47 104.07 286.08 102.45
  A 0.54 0.53 61.0 0 0 285.18 102.19
  L 284.38 103.00
  Q 283.99 103.39 283.99 103.93
  Q 283.99 104.57 284.27 104.49"
/>
<path stroke="#2b2a2b" stroke-opacity="0.996" vector-effect="non-scaling-stroke" d="
  M 276.33 104.74
  Q 276.53 102.31 275.66 101.76
  Q 275.12 101.41 275.00 102.05
  Q 274.86 102.88 275.33 103.95"
/>
</g>
<path fill="#333333" d="
  M 281.86 44.51
  L 281.39 30.14
  Q 281.36 29.39 282.11 29.37
  L 291.83 29.21
  A 0.44 0.44 0.0 0 1 292.28 29.65
  L 292.24 71.88
  A 0.63 0.62 -89.5 0 1 291.62 72.50
  L 284.95 72.50
  Q 284.29 72.50 283.96 71.94
  L 282.39 69.29
  A 0.91 0.90 -39.4 0 0 280.93 69.15
  Q 276.23 74.53 270.21 72.49
  C 261.34 69.48 261.07 56.19 263.17 49.14
  C 265.63 40.89 275.42 36.97 281.25 44.73
  A 0.34 0.34 0.0 0 0 281.86 44.51
  Z
  M 277.8215 64.6183
  A 7.71 4.94 88.8 0 0 282.5989 56.8065
  A 7.71 4.94 88.8 0 0 277.4985 49.2017
  A 7.71 4.94 88.8 0 0 272.7211 57.0135
  A 7.71 4.94 88.8 0 0 277.8215 64.6183
  Z"
/>
<path fill="#333333" d="
  M 169.71 65.00
  L 157.13 65.00
  A 0.58 0.58 0.0 0 0 156.57 65.43
  L 154.81 72.07
  A 0.58 0.58 0.0 0 1 154.25 72.50
  L 143.54 72.50
  A 0.58 0.58 0.0 0 1 142.98 71.74
  L 155.77 32.16
  A 0.58 0.58 0.0 0 1 156.32 31.76
  L 170.03 31.75
  A 0.58 0.58 0.0 0 1 170.58 32.15
  L 183.62 71.74
  A 0.58 0.58 0.0 0 1 183.07 72.50
  L 172.50 72.50
  A 0.58 0.58 0.0 0 1 171.94 72.06
  L 170.27 65.44
  A 0.58 0.58 0.0 0 0 169.71 65.00
  Z
  M 159.06 55.55
  A 0.34 0.34 0.0 0 0 159.39 55.97
  L 167.15 56.03
  A 0.34 0.34 0.0 0 0 167.49 55.61
  L 163.71 40.04
  A 0.34 0.34 0.0 0 0 163.05 40.04
  L 159.06 55.55
  Z"
/>
<path fill="#213065" d="
  M 25.19 64.93
  L 16.12 74.01
  A 0.35 0.35 0.0 0 1 15.52 73.77
  L 15.49 34.35
  A 0.35 0.35 0.0 0 1 15.84 34.00
  L 26.48 34.00
  A 0.35 0.35 0.0 0 1 26.79 34.19
  L 36.65 53.48
  A 0.35 0.35 0.0 0 1 36.57 53.90
  L 30.64 59.27
  A 0.35 0.35 0.0 0 1 30.09 59.17
  L 25.82 50.86
  A 0.35 0.35 0.0 0 0 25.16 51.02
  L 25.29 64.68
  A 0.35 0.35 0.0 0 1 25.19 64.93
  Z"
/>
<rect fill="#213065" x="-5.70" y="-0.56" transform="translate(57.56,38.07) rotate(-44.7)" width="11.40" height="1.12" rx="0.26"/>
<rect fill="#213065" x="-11.14" y="-0.60" transform="translate(57.61,41.86) rotate(-45.0)" width="22.28" height="1.20" rx="0.58"/>
<rect fill="#213065" x="-16.29" y="-0.60" transform="translate(57.58,45.63) rotate(-44.8)" width="32.58" height="1.20" rx="0.58"/>
<rect fill="#213065" x="-23.45" y="-0.60" transform="translate(52.43,54.31) rotate(-44.9)" width="46.90" height="1.20" rx="0.44"/>
<path fill="#333333" d="
  M 109.0299 58.8529
  A 14.16 14.16 0.0 0 1 94.7224 72.8639
  L 91.9025 72.8344
  A 14.16 14.16 0.0 0 1 77.8916 58.5269
  L 77.9301 54.8471
  A 14.16 14.16 0.0 0 1 92.2376 40.8361
  L 95.0575 40.8656
  A 14.16 14.16 0.0 0 1 109.0684 55.1731
  L 109.0299 58.8529
  Z
  M 93.5239 65.1899
  A 8.38 4.76 89.7 0 0 98.2399 56.7851
  A 8.38 4.76 89.7 0 0 93.4361 48.4301
  A 8.38 4.76 89.7 0 0 88.7201 56.8349
  A 8.38 4.76 89.7 0 0 93.5239 65.1899
  Z"
/>
<path fill="#333333" d="
  M 202.31 59.99
  C 203.87 66.75 211.50 64.39 215.58 62.23
  A 0.66 0.66 0.0 0 1 216.55 62.83
  L 216.37 69.62
  Q 216.35 70.27 215.78 70.58
  C 205.62 76.13 192.82 72.78 191.08 59.92
  C 188.80 43.05 203.48 36.96 216.95 42.77
  Q 217.45 42.99 217.26 43.49
  L 214.94 49.69
  A 1.36 1.35 -68.0 0 1 213.13 50.46
  C 204.49 46.69 200.34 51.43 202.31 59.99
  Z"
/>
<path fill="#333333" d="
  M 243.88 68.53
  C 238.40 74.81 226.27 75.34 224.73 65.16
  C 222.99 53.65 233.79 52.57 242.01 52.73
  A 1.12 1.12 0.0 0 0 243.15 51.68
  C 243.53 45.82 234.15 48.88 231.65 50.13
  A 1.15 1.15 0.0 0 1 230.08 49.54
  L 227.92 44.33
  A 1.17 1.17 0.0 0 1 228.60 42.78
  C 235.22 40.37 247.40 38.51 252.06 45.38
  C 255.34 50.22 254.12 66.14 253.91 72.17
  A 0.68 0.67 -87.1 0 1 253.20 72.82
  L 247.15 72.46
  Q 246.52 72.43 246.26 71.85
  L 244.82 68.66
  A 0.57 0.56 -36.8 0 0 243.88 68.53
  Z
  M 235.79 60.61
  C 232.19 65.77 243.98 68.46 243.37 59.03
  A 0.56 0.56 0.0 0 0 242.84 58.50
  C 240.71 58.39 237.11 58.71 235.79 60.61
  Z"
/>
<path fill="#333333" d="
  M 310.68 60.53
  C 312.08 67.59 322.78 65.18 327.15 63.37
  Q 327.75 63.12 327.75 63.77
  L 327.75 70.22
  Q 327.75 70.78 327.23 71.00
  Q 320.34 73.83 312.94 72.88
  C 291.63 70.15 296.75 33.53 321.51 41.76
  C 329.52 44.41 329.90 51.49 330.06 58.68
  A 1.01 1.01 0.0 0 1 329.06 59.71
  L 311.22 59.88
  Q 310.55 59.88 310.68 60.53
  Z
  M 311.24 53.04
  L 319.62 52.96
  A 0.43 0.43 0.0 0 0 320.04 52.52
  L 320.04 52.39
  A 4.44 4.42 89.4 0 0 315.57 48.00
  L 315.17 48.00
  A 4.44 4.42 89.4 0 0 310.80 52.49
  L 310.80 52.62
  A 0.43 0.43 0.0 0 0 311.24 53.04
  Z"
/>
<path fill="#333333" d="
  M 347.74 44.65
  C 352.19 38.90 361.53 39.56 366.18 44.78
  A 0.51 0.50 44.0 0 0 366.94 44.77
  Q 370.88 40.12 377.27 40.78
  C 387.07 41.78 386.49 47.99 386.49 56.53
  Q 386.49 64.21 386.55 71.91
  Q 386.56 72.50 385.97 72.50
  L 376.55 72.50
  A 0.80 0.80 0.0 0 1 375.75 71.70
  Q 375.75 62.18 375.74 52.50
  C 375.74 49.07 371.16 47.83 369.08 50.56
  C 366.42 54.06 367.36 67.11 367.11 71.91
  Q 367.08 72.50 366.48 72.50
  L 357.29 72.50
  Q 356.72 72.50 356.70 71.93
  Q 356.39 63.32 356.51 54.82
  C 356.63 46.24 348.57 47.93 348.36 55.44
  Q 348.15 63.07 348.28 71.20
  A 1.24 1.24 0.0 0 1 347.06 72.46
  L 338.46 72.60
  A 1.13 1.12 -0.0 0 1 337.32 71.47
  L 337.42 41.76
  A 0.81 0.80 -88.9 0 1 338.24 40.96
  L 344.55 41.09
  Q 345.10 41.10 345.47 41.50
  Q 346.56 42.69 346.35 44.04
  A 0.79 0.78 68.6 0 0 347.74 44.65
  Z"
/>
<path fill="#d22b27" d="
  M 67.85 42.09
  Q 68.09 41.59 68.27 41.47
  Q 69.24 40.80 69.24 42.00
  L 69.26 81.12
  Q 69.26 81.74 68.63 81.76
  L 59.46 82.05
  A 0.57 0.57 0.0 0 1 59.04 81.08
  L 59.40 80.73
  A 0.37 0.34 69.2 0 0 59.50 80.48
  L 59.50 50.94
  A 1.37 1.35 -22.8 0 1 59.90 49.98
  C 61.84 48.08 66.78 44.25 67.85 42.09
  Z"
/>
<path fill="#333333" d="
  M 420.06 63.56
  C 416.09 74.24 412.91 89.33 397.23 85.55
  Q 396.82 85.45 396.81 85.03
  L 396.61 77.94
  A 0.76 0.76 0.0 0 1 397.55 77.18
  Q 404.19 78.75 405.98 72.31
  Q 406.12 71.79 405.92 71.28
  L 394.12 41.83
  A 0.63 0.63 0.0 0 1 394.71 40.97
  L 404.70 41.08
  Q 405.33 41.08 405.49 41.69
  L 411.09 62.12
  A 0.46 0.46 0.0 0 0 411.99 62.02
  C 412.25 55.51 415.30 48.43 417.08 42.24
  A 1.72 1.72 0.0 0 1 418.73 41.00
  L 427.73 41.00
  A 0.57 0.57 0.0 0 1 428.26 41.77
  Q 424.13 52.63 420.06 63.56
  Z"
/>
<path fill="#d22b27" d="
  M 47.78 72.71
  C 45.45 77.08 39.52 78.91 37.33 73.32
  Q 37.13 72.80 37.52 72.41
  L 57.39 52.37
  A 0.32 0.32 0.0 0 1 57.91 52.74
  Q 53.10 62.73 47.78 72.71
  Z"
/>
<path fill="#222123" fill-opacity="0.992" d="
  M 37.60 55.20
  L 31.56 61.23
  A 0.62 0.61 -20.3 0 1 30.51 60.75
  L 30.54 60.34
  Q 30.57 59.89 31.03 59.95
  L 31.48 60.01
  Q 31.59 60.02 31.66 59.93
  Q 34.03 56.94 36.97 54.51
  A 0.47 0.47 0.0 0 1 37.60 55.20
  Z"
/>
<rect fill="#213065" x="-4.61" y="-0.61" transform="translate(35.29,60.33) rotate(-43.6)" width="9.22" height="1.22" rx="0.56"/>
<rect fill="#213065" x="-4.68" y="-0.55" transform="translate(36.52,62.89) rotate(-44.6)" width="9.36" height="1.10" rx="0.53"/>
<rect fill="#213065" x="-4.60" y="-0.59" transform="translate(37.71,65.46) rotate(-44.7)" width="9.20" height="1.18" rx="0.57"/>
<rect fill="#213065" x="-6.99" y="-0.56" transform="translate(20.39,73.24) rotate(-44.5)" width="13.98" height="1.12" rx="0.49"/>
<rect fill="#213065" x="-6.76" y="-0.54" transform="translate(20.44,76.92) rotate(-44.6)" width="13.52" height="1.08" rx="0.53"/>
<ellipse fill="#213065" cx="0.00" cy="0.00" transform="translate(22.34,78.90) rotate(-44.0)" rx="4.26" ry="0.67"/>
<ellipse fill="#213065" cx="0.00" cy="0.00" transform="translate(24.19,80.64) rotate(-35.5)" rx="1.53" ry="0.77"/>
<path fill="#222123" fill-opacity="0.992" d="
  M 128.27 102.72
  L 128.58 114.14
  Q 128.60 114.63 128.33 115.06
  Q 127.59 116.25 126.83 115.30
  Q 126.50 114.88 126.50 114.35
  L 126.50 100.27
  A 1.50 1.50 0.0 0 1 129.43 99.80
  L 132.68 109.69
  A 0.71 0.71 0.0 0 0 134.03 109.71
  L 137.58 99.78
  A 1.38 1.37 54.9 0 1 140.25 100.25
  L 140.25 114.74
  A 0.87 0.86 -77.9 0 1 139.03 115.53
  Q 138.69 115.37 138.43 114.97
  Q 138.28 114.73 138.27 114.36
  Q 138.24 109.58 138.25 105.01
  A 0.56 0.55 76.4 0 0 137.44 104.51
  Q 136.97 104.76 136.84 105.32
  Q 135.88 109.55 134.26 113.16
  A 0.97 0.97 0.0 0 1 132.46 113.09
  L 128.68 102.64
  A 0.21 0.21 0.0 0 0 128.27 102.72
  Z"
/>
<path fill="#222123" fill-opacity="0.992" d="
  M 150.8452 115.8799
  A 8.55 7.05 90.3 0 1 143.8401 107.2931
  A 8.55 7.05 90.3 0 1 150.9348 98.7801
  A 8.55 7.05 90.3 0 1 157.9399 107.3669
  A 8.55 7.05 90.3 0 1 150.8452 115.8799
  Z
  M 150.9092 113.8996
  A 6.61 4.79 89.4 0 0 155.6297 107.2398
  A 6.61 4.79 89.4 0 0 150.7708 100.6804
  A 6.61 4.79 89.4 0 0 146.0503 107.3402
  A 6.61 4.79 89.4 0 0 150.9092 113.8996
  Z"
/>
<path fill="#222123" fill-opacity="0.992" d="
  M 163.78 108.39
  L 163.83 114.46
  Q 163.84 115.05 163.36 115.41
  Q 162.12 116.34 161.40 114.86
  Q 161.23 114.52 161.24 114.13
  L 161.52 99.85
  Q 161.54 99.17 162.22 99.17
  L 162.98 99.17
  Q 163.80 99.17 163.78 99.98
  L 163.68 105.34
  Q 163.66 106.00 164.33 106.00
  L 170.88 106.00
  A 0.67 0.67 0.0 0 0 171.55 105.30
  L 171.32 99.91
  Q 171.30 99.31 171.88 99.18
  L 172.65 99.02
  Q 173.52 98.83 173.52 99.72
  L 173.47 114.73
  A 1.08 1.08 0.0 0 1 171.31 114.82
  Q 171.07 111.79 171.54 108.95
  A 0.82 0.81 4.7 0 0 170.73 108.00
  L 164.16 108.00
  Q 163.77 108.00 163.78 108.39
  Z"
/>
<path fill="#222123" fill-opacity="0.992" d="
  M 182.61 99.04
  Q 183.99 99.46 184.22 100.55
  C 185.19 105.07 187.39 109.91 188.80 114.39
  A 1.07 1.06 -26.3 0 1 188.39 115.58
  Q 187.33 116.31 186.86 114.92
  Q 186.23 113.05 185.56 111.16
  A 0.62 0.61 79.4 0 0 184.97 110.75
  L 179.84 110.76
  A 0.86 0.86 0.0 0 0 179.03 111.34
  C 178.65 112.43 178.38 114.62 177.63 115.37
  Q 177.14 115.86 176.56 115.75
  A 0.76 0.75 -75.5 0 1 175.99 114.77
  L 180.93 99.90
  A 1.35 1.35 0.0 0 1 182.61 99.04
  Z
  M 180.08 108.32
  A 0.52 0.52 0.0 0 0 180.57 108.99
  L 184.26 109.01
  A 0.52 0.52 0.0 0 0 184.76 108.35
  L 182.95 101.84
  A 0.52 0.52 0.0 0 0 181.95 101.83
  L 180.08 108.32
  Z"
/>
<path fill="#222123" fill-opacity="0.992" d="
  M 203.27 104.74
  Q 203.42 104.76 203.54 104.77
  Q 203.85 104.77 203.97 104.50
  Q 204.58 103.14 203.96 102.42
  Q 203.63 102.04 203.18 102.29
  Q 201.17 103.41 202.06 104.24
  L 199.21 113.05
  A 1.07 1.07 0.0 0 1 197.15 112.97
  C 196.54 110.47 195.34 104.96 193.21 103.27
  Q 192.69 102.86 192.78 103.52
  C 193.29 107.12 193.24 110.63 193.63 114.18
  Q 193.76 115.44 192.69 115.62
  A 0.91 0.91 0.0 0 1 191.63 114.74
  L 191.46 100.36
  A 1.46 1.46 0.0 0 1 194.30 99.86
  L 197.69 109.71
  A 0.67 0.67 0.0 0 0 198.96 109.72
  L 202.59 99.75
  A 1.34 1.34 0.0 0 1 205.19 100.18
  L 205.46 114.95
  A 0.44 0.44 0.0 0 1 205.17 115.38
  L 204.08 115.77
  Q 203.26 116.07 203.26 115.20
  L 203.27 104.74
  Z"
/>
<path fill="#333333" d="
  M 212.25 113.75
  L 218.57 113.75
  Q 219.18 113.75 219.36 114.34
  L 219.52 114.83
  Q 219.78 115.67 218.91 115.68
  L 210.42 115.77
  A 0.66 0.66 0.0 0 1 209.75 115.11
  L 209.75 99.63
  A 0.62 0.61 -89.5 0 1 210.37 99.01
  L 218.95 99.08
  A 0.90 0.90 0.0 0 1 218.96 100.88
  L 212.34 101.05
  A 0.61 0.61 0.0 0 0 211.75 101.66
  L 211.75 105.25
  Q 211.75 106.00 212.50 106.00
  L 217.43 106.00
  Q 218.04 106.00 218.16 106.60
  L 218.29 107.24
  A 0.56 0.56 0.0 0 1 217.75 107.91
  L 212.40 107.95
  A 0.65 0.65 0.0 0 0 211.75 108.60
  L 211.75 113.25
  Q 211.75 113.75 212.25 113.75
  Z"
/>
<path fill="#222123" fill-opacity="0.992" d="
  M 223.01 99.81
  A 0.83 0.83 0.0 0 1 223.84 98.98
  L 227.48 98.99
  A 7.27 7.25 0.1 0 1 234.74 106.25
  L 234.74 108.23
  A 7.27 7.25 0.1 0 1 227.46 115.47
  L 223.82 115.46
  A 0.83 0.83 0.0 0 1 222.99 114.63
  L 223.01 99.81
  Z
  M 225.20 101.11
  L 225.20 113.65
  A 0.23 0.23 0.0 0 0 225.43 113.88
  L 227.29 113.88
  A 6.08 5.41 -90.0 0 0 232.70 107.80
  L 232.70 106.96
  A 6.08 5.41 90.0 0 0 227.29 100.88
  L 225.43 100.88
  A 0.23 0.23 0.0 0 0 225.20 101.11
  Z"
/>
<path fill="#222123" fill-opacity="0.992" d="
  M 244.69 111.09
  Q 244.03 114.19 243.68 114.93
  Q 243.17 115.99 241.79 115.39
  Q 241.35 115.20 241.50 114.75
  L 246.50 99.97
  A 1.68 1.68 0.0 0 1 249.68 99.97
  L 254.67 114.84
  Q 254.90 115.50 254.20 115.50
  L 252.95 115.50
  Q 252.38 115.50 252.24 114.95
  L 251.27 111.25
  A 0.76 0.76 0.0 0 0 250.56 110.68
  L 245.38 110.55
  A 0.68 0.68 0.0 0 0 244.69 111.09
  Z
  M 245.99 108.92
  L 249.92 108.93
  Q 250.96 108.93 250.45 108.02
  Q 249.07 105.57 248.97 102.69
  A 0.74 0.74 0.0 0 0 247.52 102.51
  L 245.76 108.62
  A 0.24 0.24 0.0 0 0 245.99 108.92
  Z"
/>
<path fill="#222123" fill-opacity="0.992" d="
  M 266.28 108.05
  L 259.97 107.88
  A 0.79 0.78 89.7 0 0 259.16 108.71
  L 259.43 114.76
  A 0.67 0.66 86.0 0 1 258.83 115.46
  L 257.74 115.56
  A 0.70 0.70 0.0 0 1 256.98 114.85
  L 257.28 99.86
  Q 257.29 99.25 257.90 99.25
  L 258.81 99.25
  Q 259.37 99.25 259.35 99.81
  L 259.21 105.22
  Q 259.19 106.00 259.97 106.00
  L 266.46 106.00
  Q 267.08 106.00 266.96 105.39
  Q 266.43 102.60 266.98 99.79
  A 1.02 1.02 0.0 0 1 269.00 99.99
  L 269.00 115.01
  A 0.69 0.68 -88.4 0 1 268.28 115.70
  L 267.18 115.63
  Q 266.75 115.61 266.75 115.18
  L 266.75 108.53
  Q 266.75 108.07 266.28 108.05
  Z"
/>
<path fill="#222123" fill-opacity="0.992" d="
  M 285.41 104.55
  Q 286.47 104.07 286.08 102.45
  A 0.54 0.53 61.0 0 0 285.18 102.19
  L 284.38 103.00
  Q 283.99 103.39 283.99 103.93
  Q 283.99 104.57 284.27 104.49
  L 281.24 113.19
  A 1.02 1.02 0.0 0 1 279.31 113.19
  L 276.33 104.74
  Q 276.53 102.31 275.66 101.76
  Q 275.12 101.41 275.00 102.05
  Q 274.86 102.88 275.33 103.95
  Q 275.15 103.96 275.01 103.98
  Q 274.62 104.03 274.70 104.42
  Q 275.86 109.59 275.44 114.89
  Q 275.40 115.36 274.94 115.49
  L 274.34 115.66
  Q 273.50 115.90 273.50 115.03
  L 273.50 100.28
  A 1.48 1.48 0.0 0 1 276.38 99.80
  L 279.70 109.48
  Q 279.87 110.00 280.42 110.01
  Q 281.36 110.03 281.26 109.12
  Q 281.21 108.66 281.38 108.23
  L 284.65 99.81
  A 1.34 1.34 0.0 0 1 287.24 100.29
  L 287.28 114.83
  A 0.88 0.88 0.0 0 1 286.24 115.70
  Q 285.00 115.48 285.13 114.04
  C 285.43 110.95 285.32 107.66 285.41 104.55
  Z"
/>
<path fill="#333333" d="
  M 293.95 101.54
  L 293.86 105.40
  A 0.55 0.55 0.0 0 0 294.40 105.97
  L 299.70 106.07
  A 0.81 0.81 0.0 0 1 299.88 107.66
  Q 297.34 108.30 294.82 107.79
  A 0.86 0.85 -84.6 0 0 293.80 108.64
  L 293.88 113.58
  A 0.39 0.39 0.0 0 0 294.32 113.96
  C 295.87 113.77 300.09 113.27 301.38 114.23
  A 0.67 0.67 0.0 0 1 301.01 115.43
  L 292.54 115.79
  A 0.76 0.76 0.0 0 1 291.75 115.03
  L 291.75 99.71
  A 0.72 0.72 0.0 0 1 292.48 98.99
  L 300.75 99.08
  A 0.92 0.91 44.7 0 1 300.76 100.91
  L 294.45 101.04
  Q 293.96 101.05 293.95 101.54
  Z"
/>
<path fill="#222123" fill-opacity="0.992" d="
  M 304.97 99.80
  A 0.79 0.79 0.0 0 1 305.76 99.01
  L 309.28 99.00
  A 7.45 7.22 -0.2 0 1 316.76 106.19
  L 316.76 108.25
  A 7.45 7.22 -0.2 0 1 309.34 115.50
  L 305.82 115.51
  A 0.79 0.79 0.0 0 1 305.03 114.72
  L 304.97 99.80
  Z
  M 307.22 101.35
  L 307.18 113.43
  A 0.48 0.48 0.0 0 0 307.66 113.91
  L 309.34 113.91
  A 5.98 5.38 -89.8 0 0 314.74 107.95
  L 314.74 106.87
  A 5.98 5.38 -89.8 0 0 309.38 100.87
  L 307.70 100.87
  A 0.48 0.48 0.0 0 0 307.22 101.35
  Z"
/>
<path fill="#333333" d="
  M 276.33 104.74
  Q 275.68 104.46 275.33 103.95
  Q 274.86 102.88 275.00 102.05
  Q 275.12 101.41 275.66 101.76
  Q 276.53 102.31 276.33 104.74
  Z"
/>
<path fill="#333333" d="
  M 203.27 104.74
  Q 203.14 104.16 202.06 104.24
  Q 201.17 103.41 203.18 102.29
  Q 203.63 102.04 203.96 102.42
  Q 204.58 103.14 203.97 104.50
  Q 203.85 104.77 203.54 104.77
  Q 203.42 104.76 203.27 104.74
  Z"
/>
<path fill="#333333" d="
  M 285.41 104.55
  L 284.27 104.49
  Q 283.99 104.57 283.99 103.93
  Q 283.99 103.39 284.38 103.00
  L 285.18 102.19
  A 0.54 0.53 61.0 0 1 286.08 102.45
  Q 286.47 104.07 285.41 104.55
  Z"
/>
<rect fill="#333333" x="-47.43" y="-1.25" transform="translate(72.97,107.25) rotate(-0.2)" width="94.86" height="2.50" rx="0.27"/>
<rect fill="#333333" x="323.05" y="106.01" width="94.98" height="2.24" rx="0.93"/>
</svg>
