<svg xmlns="http://www.w3.org/2000/svg" version="1.1" viewBox="0.00 0.00 352.00 241.00">
<g stroke-width="2.00" fill="none" stroke-linecap="butt">
<path stroke="#cd6cc5" vector-effect="non-scaling-stroke" d="   M 79.72 104.86   Q 77.67 105.41 74.74 104.92" fill="#ffffff"/>
<path stroke="#cd6cc5" vector-effect="non-scaling-stroke" d="   M 69.71 102.83   Q 69.71 106.55 65.46 105.43   Q 65.37 105.41 65.34 105.49   Q 65.29 105.62 65.27 105.75   A 0.11 0.11 0.0 0 1 65.05 105.76   L 64.81 104.49" fill="#ffffff"/>
<path stroke="#cd6cc5" vector-effect="non-scaling-stroke" d="   M 44.86 99.68   L 39.65 99.38" fill="#ffffff"/>
<path stroke="#a67ec9" vector-effect="non-scaling-stroke" d="   M 19.95 103.42   Q 20.18 99.58 15.17 101.80   Q 15.05 101.86 14.94 101.80   Q 14.84 101.75 14.62 101.76" fill="#ffffff"/>
<path stroke="#a67ec9" vector-effect="non-scaling-stroke" d="   M 9.95 121.62   Q 7.79 123.02 5.93 123.08   Q 5.36 123.10 5.46 122.53   Q 5.75 120.95 5.03 120.45" fill="#ffffff"/>
<path stroke="#9687e7" vector-effect="non-scaling-stroke" d="   M 44.63 137.44   L 40.67 137.19   Q 40.27 137.16 40.25 136.76   Q 40.25 136.63 40.27 136.49   Q 40.37 135.80 40.02 136.48   Q 39.87 136.77 39.61 136.76" fill="#ffffff"/>
<path stroke="#9687e7" vector-effect="non-scaling-stroke" d="   M 64.51 126.47   L 64.92 129.05   Q 65.00 129.57 65.45 129.30   Q 67.96 127.83 69.67 128.56" fill="#ffffff"/>
<path stroke="#9687e7" vector-effect="non-scaling-stroke" d="   M 74.73 139.82   Q 76.83 142.30 79.73 139.27" fill="#ffffff"/>
</g>
<path fill="#ffffff" d="   M 268.01 132.26   C 232.28 126.05 225.36 87.49 230.79 58.06   C 234.54 37.71 245.09 22.78 266.48 18.24   C 288.46 13.56 313.85 19.40 324.55 41.19   C 333.90 60.20 333.82 92.82 323.16 111.35   C 311.95 130.84 289.11 135.93 268.01 132.26   Z   M 282.07 45.78   C 272.33 58.94 272.14 84.67 278.89 99.32   Q 283.50 109.31 294.31 112.63   A 0.40 0.40 0.0 0 0 294.63 111.90   C 288.00 108.06 284.04 100.30 282.53 92.99   C 279.29 77.21 278.58 47.86 294.59 38.14   Q 295.03 37.88 295.51 38.03   Q 296.35 38.29 296.61 37.51   A 0.48 0.47 1.9 0 0 296.03 36.90   Q 286.79 39.40 282.07 45.78   Z   M 294.13 46.39   C 284.57 58.62 285.36 88.61 292.44 101.27   C 296.57 108.64 306.53 111.45 312.55 104.50   C 323.12 92.27 322.56 60.27 314.38 47.67   C 309.69 40.45 299.60 39.38 294.13 46.39   Z"/>
<path fill="#ffffff" d="   M 109.07 83.44   Q 109.94 104.09 110.87 124.74   C 111.22 132.55 103.09 130.37 98.00 130.21   A 3.61 3.60 -89.1 0 1 94.51 126.60   Q 94.47 78.91 94.52 30.88   C 94.53 23.68 96.70 20.57 103.94 20.53   Q 116.69 20.45 129.44 20.54   Q 134.19 20.58 137.19 25.36   Q 146.96 40.94 156.51 56.33   A 0.85 0.84 42.6 0 0 157.98 56.27   Q 164.92 42.77 172.08 29.43   C 175.25 23.53 178.56 20.54 185.24 20.52   Q 194.61 20.48 203.96 20.50   C 213.38 20.52 217.49 22.69 217.49 32.40   Q 217.52 76.45 217.41 120.50   Q 217.38 130.16 207.77 130.20   Q 187.90 130.29 168.07 130.20   C 162.31 130.18 160.31 124.44 160.29 119.44   Q 160.21 101.84 160.14 84.25   Q 160.13 83.54 159.43 83.91   A 0.53 0.53 0.0 0 0 159.24 84.10   Q 151.22 98.86 143.18 113.64   C 138.42 122.38 132.18 122.10 127.24 113.78   Q 119.03 99.97 110.98 86.03   Q 110.14 84.58 109.98 83.62   Q 109.92 83.26 109.56 83.25   Q 109.40 83.25 109.25 83.25   Q 109.06 83.25 109.07 83.44   Z   M 131.04 29.21   C 129.53 26.83 126.64 26.63 124.07 26.92   A 0.68 0.67 -19.6 0 0 123.58 27.95   L 149.66 69.32   Q 150.52 70.69 151.25 69.24   L 153.24 65.26   A 1.12 1.10 42.8 0 0 153.19 64.16   Q 142.12 46.65 131.04 29.21   Z   M 210.87 30.81   C 210.86 27.35 208.47 26.57 205.47 26.97   Q 205.00 27.03 205.00 27.50   L 205.00 123.30   A 0.57 0.57 0.0 0 0 205.61 123.87   L 209.19 123.69   Q 209.80 123.66 210.02 123.09   Q 210.99 120.60 210.99 119.50   Q 211.02 75.15 210.87 30.81   Z"/>
<path fill="#dd62a7" d="   M 79.72 104.86   Q 77.67 105.41 74.74 104.92   L 74.69 101.21   Q 74.68 100.67 74.14 100.62   Q 68.85 100.12 69.71 102.83   Q 69.71 106.55 65.46 105.43   Q 65.37 105.41 65.34 105.49   Q 65.29 105.62 65.27 105.75   A 0.11 0.11 0.0 0 1 65.05 105.76   L 64.81 104.49   L 64.77 92.69   A 0.76 0.75 -89.6 0 0 64.04 91.94   Q 52.41 91.63 44.86 99.68   L 39.65 99.38   C 35.22 95.40 26.88 90.73 20.52 92.29   Q 20.00 92.41 20.00 92.96   L 19.95 103.42   Q 20.18 99.58 15.17 101.80   Q 15.05 101.86 14.94 101.80   Q 14.84 101.75 14.62 101.76   Q 14.80 101.57 14.79 101.26   Q 14.76 100.70 14.20 100.71   L 10.78 100.74   Q 9.93 100.74 9.93 101.60   L 9.95 121.62   Q 7.79 123.02 5.93 123.08   Q 5.36 123.10 5.46 122.53   Q 5.75 120.95 5.03 120.45   L 5.02 98.13   A 2.62 2.62 0.0 0 1 7.64 95.51   L 14.04 95.50   Q 14.71 95.49 14.74 94.83   C 14.90 90.98 13.93 88.07 18.94 87.36   C 28.08 86.07 34.70 89.44 41.89 94.55   Q 42.27 94.82 42.65 94.56   C 50.45 89.34 56.44 85.61 66.25 87.51   Q 68.05 87.86 69.34 89.53   Q 69.67 89.95 69.68 90.48   L 69.78 94.98   A 0.47 0.47 0.0 0 0 70.24 95.44   L 78.18 95.64   A 0.84 0.83 -7.1 0 1 78.96 96.24   Q 80.16 100.29 79.72 104.86   Z"/>
<path fill="#bd75e2" d="   M 44.86 99.68   L 44.63 137.44   L 40.67 137.19   Q 40.27 137.16 40.25 136.76   Q 40.25 136.63 40.27 136.49   Q 40.37 135.80 40.02 136.48   Q 39.87 136.77 39.61 136.76   L 39.65 99.38   L 44.86 99.68   Z"/>
<path fill="#6e99eb" d="   M 19.95 103.42   L 19.93 136.46   Q 19.93 137.07 20.54 137.03   Q 31.05 136.26 39.16 142.79   A 0.35 0.35 0.0 0 0 39.72 142.51   L 39.61 136.76   Q 39.87 136.77 40.02 136.48   Q 40.37 135.80 40.27 136.49   Q 40.25 136.63 40.25 136.76   Q 40.27 137.16 40.67 137.19   L 44.63 137.44   L 44.74 142.17   A 0.48 0.47 70.7 0 0 45.50 142.54   Q 53.79 136.28 64.22 137.01   A 0.51 0.50 -88.5 0 0 64.76 136.49   L 64.51 126.47   L 64.92 129.05   Q 65.00 129.57 65.45 129.30   Q 67.96 127.83 69.67 128.56   L 69.75 140.89   A 1.29 1.25 -22.5 0 1 69.34 141.84   C 67.20 143.85 64.40 141.94 62.22 141.91   Q 56.23 141.84 51.10 144.98   Q 50.33 145.45 51.23 145.45   L 74.08 145.48   Q 74.66 145.49 74.67 144.90   L 74.73 139.82   Q 76.83 142.30 79.73 139.27   L 79.41 148.38   A 1.92 1.92 0.0 0 1 77.49 150.24   L 7.50 150.26   Q 5.02 150.26 5.02 147.77   L 5.03 120.45   Q 5.75 120.95 5.46 122.53   Q 5.36 123.10 5.93 123.08   Q 7.79 123.02 9.95 121.62   L 9.80 144.80   Q 9.80 145.29 10.28 145.28   L 32.23 145.06   Q 32.97 145.06 32.33 144.69   Q 26.05 141.00 19.07 142.63   C 15.70 143.41 14.69 142.35 14.64 139.06   Q 14.31 120.40 14.62 101.76   Q 14.84 101.75 14.94 101.80   Q 15.05 101.86 15.17 101.80   Q 20.18 99.58 19.95 103.42   Z"/>
<path fill="#bd75e2" d="   M 69.71 102.83   L 69.67 128.56   Q 67.96 127.83 65.45 129.30   Q 65.00 129.57 64.92 129.05   L 64.51 126.47   L 64.81 104.49   L 65.05 105.76   A 0.11 0.11 0.0 0 0 65.27 105.75   Q 65.29 105.62 65.34 105.49   Q 65.37 105.41 65.46 105.43   Q 69.71 106.55 69.71 102.83   Z"/>
<path fill="#bd75e2" d="   M 79.72 104.86   L 79.73 139.27   Q 76.83 142.30 74.73 139.82   L 74.74 104.92   Q 77.67 105.41 79.72 104.86   Z"/>
<path fill="#ffffff" d="   M 147.08 183.88   C 150.78 183.49 153.91 181.62 157.35 180.17   A 0.66 0.65 -25.3 0 1 158.19 180.47   L 159.58 183.13   Q 159.89 183.71 159.37 184.12   C 150.38 191.29 138.55 192.00 132.79 180.27   C 127.68 169.86 126.96 153.90 134.01 144.28   C 139.16 137.26 150.64 139.67 157.29 143.79   A 0.70 0.70 0.0 0 1 157.49 144.79   L 156.01 146.93   Q 155.66 147.44 155.16 147.08   C 148.24 142.11 139.14 141.66 135.88 151.00   Q 131.68 163.03 135.96 175.27   C 137.60 179.99 141.70 184.44 147.08 183.88   Z"/>
<path fill="#ffffff" d="   M 198.98 140.01   C 214.73 139.39 226.25 148.75 227.56 164.70   C 228.93 181.42 212.57 188.12 198.39 186.07   Q 197.92 186.00 197.92 185.53   L 198.03 140.99   Q 198.03 140.04 198.98 140.01   Z   M 221.31 158.84   C 218.38 151.48 211.56 144.21 203.08 143.65   Q 202.41 143.61 202.42 144.27   L 202.76 181.49   Q 202.77 182.15 203.43 182.13   C 218.00 181.56 227.53 174.47 221.31 158.84   Z"/>
<path fill="#ffffff" d="   M 113.97 140.56   A 1.17 1.16 5.2 0 1 114.60 141.31   C 118.59 155.73 124.51 169.45 129.01 183.70   C 129.70 185.88 128.34 188.84 125.50 187.81   A 1.04 1.03 -89.5 0 1 124.89 187.18   L 120.70 175.00   Q 120.52 174.46 119.96 174.40   L 104.54 172.54   A 0.68 0.67 11.6 0 0 103.81 173.02   L 100.08 186.61   Q 99.95 187.10 99.55 187.39   C 96.16 189.85 93.94 185.80 94.85 182.87   C 99.01 169.61 104.10 156.70 108.33 143.48   C 109.36 140.28 110.49 138.90 113.97 140.56   Z   M 105.78 169.26   C 110.21 169.21 114.44 169.19 118.99 169.76   A 0.55 0.54 -8.7 0 0 119.56 168.99   Q 114.90 158.98 112.05 148.32   A 0.26 0.25 -43.6 0 0 111.56 148.31   L 105.18 168.45   Q 104.92 169.27 105.78 169.26   Z"/>
<path fill="#ffffff" d="   M 171.08 172.59   A 1.00 0.99 12.3 0 0 170.01 173.27   Q 168.18 178.92 166.83 185.01   C 165.67 190.25 160.50 188.17 160.97 183.98   Q 161.26 181.39 163.93 174.10   Q 169.98 157.60 175.45 140.89   A 0.99 0.99 0.0 0 1 176.16 140.23   Q 178.19 139.73 180.20 140.49   Q 180.68 140.67 180.82 141.16   C 184.93 155.89 191.56 169.75 195.21 184.51   C 196.07 188.00 191.53 189.46 190.63 186.28   Q 189.01 180.60 187.05 175.01   Q 186.85 174.45 186.26 174.38   L 171.08 172.59   Z   M 184.81 169.36   Q 186.20 169.38 185.57 168.14   Q 180.63 158.45 178.43 147.78   A 0.44 0.43 -44.8 0 0 177.58 147.78   Q 175.27 158.45 171.03 168.53   A 0.49 0.48 11.7 0 0 171.48 169.20   L 184.81 169.36   Z"/>
<path fill="#ffffff" d="   M 237.35 159.13   Q 243.53 160.13 249.81 160.20   C 251.79 160.22 252.69 161.18 252.42 163.08   Q 252.34 163.64 251.78 163.68   L 237.52 164.65   Q 236.75 164.71 236.75 165.48   L 236.75 181.01   A 0.89 0.88 2.5 0 0 237.56 181.89   Q 245.51 182.63 253.66 183.53   Q 255.03 183.68 255.44 185.15   Q 255.86 186.70 254.26 186.71   L 233.09 186.91   Q 230.74 186.93 230.84 184.58   Q 231.54 168.16 231.57 150.26   Q 231.58 145.33 232.14 140.45   Q 232.21 139.83 232.84 139.85   L 255.45 140.53   Q 256.11 140.55 256.25 141.19   L 256.65 143.15   Q 256.79 143.82 256.11 143.88   L 236.67 145.59   Q 236.20 145.63 236.23 146.09   L 236.83 158.54   Q 236.85 159.05 237.35 159.13   Z"/>
<path fill="#ffffff" d="   M 316.43 161.00   L 327.04 140.96   Q 327.39 140.29 328.12 140.47   L 330.45 141.02   Q 331.16 141.18 330.88 141.86   Q 325.82 153.77 319.45 164.98   C 317.19 168.98 318.58 181.05 318.78 185.92   A 0.55 0.55 0.0 0 1 318.23 186.50   L 314.01 186.50   Q 313.20 186.50 313.21 185.69   Q 313.31 177.30 313.59 169.38   Q 313.66 167.33 312.74 165.47   Q 306.86 153.51 301.96 141.08   Q 301.67 140.33 302.47 140.31   L 305.47 140.23   Q 306.00 140.21 306.22 140.70   L 315.52 160.98   A 0.51 0.51 0.0 0 0 316.43 161.00   Z"/>
<path fill="#ffffff" d="   M 271.32 149.62   A 0.13 0.13 0.0 0 0 271.06 149.63   Q 267.79 166.84 262.87 183.81   Q 262.30 185.75 261.38 186.31   Q 260.05 187.13 258.29 185.86   A 0.76 0.75 -66.6 0 1 258.00 185.11   C 260.98 170.63 264.94 156.06 266.46 141.37   Q 266.54 140.67 267.24 140.73   L 273.27 141.29   Q 273.90 141.35 274.11 141.95   Q 278.06 153.51 280.67 165.36   Q 280.70 165.52 280.73 166.12   Q 280.78 166.98 281.68 166.88   A 0.57 0.57 0.0 0 0 282.17 166.46   L 288.87 141.74   Q 289.18 140.61 290.35 140.70   L 295.57 141.09   Q 296.14 141.14 296.25 141.70   L 305.24 185.60   Q 305.46 186.69 304.35 186.72   L 300.79 186.82   Q 300.31 186.84 300.24 186.36   Q 297.46 168.17 293.00 150.31   A 0.53 0.53 0.0 0 0 291.98 150.29   L 285.02 173.75   A 1.81 1.81 0.0 0 1 283.14 175.04   L 278.71 174.69   A 0.92 0.53 79.5 0 1 278.13 174.01   L 271.32 149.62   Z"/>
<path fill="#ffffff" d="   M 156.09 208.92   C 165.32 205.45 163.31 212.88 163.23 219.22   Q 163.22 219.75 162.81 220.09   L 162.29 220.51   A 0.64 0.64 0.0 0 1 161.25 220.02   L 161.25 211.46   A 1.86 1.86 0.0 0 0 158.87 209.67   L 156.27 210.44   A 0.89 0.88 82.5 0 0 155.63 211.28   L 155.45 219.54   A 1.07 1.06 -83.6 0 1 154.18 220.56   Q 153.19 220.35 153.35 218.96   C 153.96 213.91 153.52 208.03 153.36 202.94   A 0.91 0.90 -12.3 0 1 153.92 202.08   Q 154.88 201.69 155.32 202.43   Q 155.54 202.81 155.51 203.61   Q 155.41 206.05 155.46 208.49   Q 155.47 209.15 156.09 208.92   Z"/>
<path fill="#ffffff" d="   M 224.06 206.75   C 223.67 211.04 223.91 215.33 223.92 219.66   A 0.95 0.95 0.0 0 1 222.02 219.79   L 221.96 219.38   A 0.39 0.38 63.1 0 0 221.30 219.16   C 218.16 222.50 213.70 219.69 213.14 215.80   Q 212.10 208.73 218.69 207.60   Q 219.13 207.53 219.51 207.75   L 221.38 208.81   Q 221.90 209.11 221.88 208.51   L 221.69 203.01   A 1.09 1.09 0.0 0 1 223.85 202.74   Q 224.25 204.61 224.06 206.75   Z   M 221.8303 212.5290   A 2.87 2.87 0.0 0 0 218.9956 209.6241   L 218.3756 209.6166   A 2.87 2.87 0.0 0 0 215.4708 212.4513   L 215.4297 215.8110   A 2.87 2.87 0.0 0 0 218.2644 218.7159   L 218.8844 218.7234   A 2.87 2.87 0.0 0 0 221.7892 215.8887   L 221.8303 212.5290   Z"/>
<path fill="#ffffff" d="   M 249.72 208.97   C 258.66 204.87 256.79 214.22 256.75 219.07   Q 256.74 219.94 256.34 220.30   Q 255.89 220.70 255.24 220.46   Q 254.75 220.28 254.75 219.77   C 254.75 216.56 256.61 207.75 250.15 210.31   A 1.82 1.82 0.0 0 0 249.00 211.99   L 248.99 219.86   A 0.64 0.64 0.0 0 1 248.22 220.49   L 247.48 220.34   A 0.60 0.59 6.0 0 1 247.00 219.76   L 247.00 202.80   A 0.75 0.75 0.0 0 1 247.75 202.05   Q 249.03 202.03 248.90 203.75   Q 248.72 206.18 249.07 208.62   Q 249.16 209.23 249.72 208.97   Z"/>
<path fill="#ffffff" d="   M 302.25 208.03   L 302.26 202.44   A 0.26 0.26 0.0 0 1 302.63 202.21   Q 302.90 202.34 303.08 202.01   A 0.79 0.72 61.0 0 1 304.47 202.48   C 304.53 207.66 307.01 219.90 299.00 220.27   C 290.64 220.65 292.39 205.03 301.48 208.56   A 0.57 0.57 0.0 0 0 302.25 208.03   Z   M 298.9696 219.1246   A 4.89 3.37 92.7 0 0 302.5663 214.3987   A 4.89 3.37 92.7 0 0 299.4304 209.3554   A 4.89 3.37 92.7 0 0 295.8337 214.0813   A 4.89 3.37 92.7 0 0 298.9696 219.1246   Z"/>
<path fill="#ffffff" d="   M 133.19 208.59   A 0.31 0.31 0.0 0 0 132.58 208.50   Q 130.93 213.37 129.56 217.27   Q 129.16 218.44 128.24 218.58   A 0.87 0.87 0.0 0 1 127.30 218.01   L 123.61 207.64   Q 123.56 207.48 123.39 207.50   L 123.09 207.55   Q 123.02 207.56 123.03 207.63   Q 123.73 213.30 123.49 219.02   Q 123.45 219.99 123.01 220.34   Q 122.50 220.74 121.71 220.43   Q 121.25 220.25 121.25 219.76   L 121.25 204.75   A 1.54 1.54 0.0 0 1 124.25 204.25   L 127.99 215.00   A 0.39 0.38 -45.5 0 0 128.72 214.99   L 132.41 204.25   A 1.44 1.44 0.0 0 1 135.22 204.70   L 135.41 219.68   A 0.66 0.66 0.0 0 1 134.87 220.34   L 133.96 220.52   Q 133.29 220.65 133.28 219.96   L 133.19 208.59   Z"/>
<path fill="#ffffff" d="   M 238.58 203.60   A 1.29 1.28 -3.9 0 1 239.56 204.45   L 244.59 219.69   Q 244.84 220.45 244.04 220.40   L 242.92 220.34   A 0.54 0.53 82.9 0 1 242.44 219.96   L 241.15 215.91   A 0.96 0.95 -8.7 0 0 240.24 215.25   L 235.73 215.25   A 0.95 0.94 -79.0 0 0 234.85 215.85   Q 234.15 217.60 233.50 219.29   Q 232.98 220.66 232.08 220.39   Q 231.20 220.11 231.48 219.23   Q 233.85 211.87 236.27 205.05   C 236.70 203.84 237.35 203.37 238.58 203.60   Z   M 235.72 212.76   A 0.68 0.68 0.0 0 0 236.35 213.64   L 239.64 213.71   A 0.68 0.68 0.0 0 0 240.31 212.83   L 238.63 207.51   A 0.68 0.68 0.0 0 0 237.34 207.51   L 235.72 212.76   Z"/>
<path fill="#ffffff" d="   M 144.0917 220.6317   A 6.49 5.69 92.9 0 1 138.7373 213.8621   A 6.49 5.69 92.9 0 1 144.7483 207.6683   A 6.49 5.69 92.9 0 1 150.1027 214.4379   A 6.49 5.69 92.9 0 1 144.0917 220.6317   Z   M 144.2584 218.8072   A 4.63 3.49 92.0 0 0 147.9079 214.3018   A 4.63 3.49 92.0 0 0 144.5816 209.5528   A 4.63 3.49 92.0 0 0 140.9321 214.0582   A 4.63 3.49 92.0 0 0 144.2584 218.8072   Z"/>
<path fill="#ffffff" d="   M 167.32 209.48   C 169.70 207.20 175.86 206.75 176.11 211.32   Q 176.34 215.48 176.23 219.46   A 0.71 0.71 0.0 0 1 175.39 220.14   C 172.63 219.62 167.59 221.72 166.90 218.22   C 165.96 213.49 170.07 213.42 173.29 212.65   A 0.96 0.96 0.0 0 0 174.03 211.74   Q 174.10 209.78 172.09 209.54   Q 171.65 209.49 171.22 209.58   L 167.77 210.32   A 0.50 0.49 17.0 0 1 167.32 209.48   Z   M 172.83 214.15   L 168.99 215.53   A 0.85 0.85 0.0 0 0 168.47 216.61   L 168.61 216.98   A 2.86 2.84 70.3 0 0 172.24 218.72   L 172.34 218.68   A 2.86 2.84 70.3 0 0 174.05 215.03   L 173.92 214.67   A 0.85 0.85 0.0 0 0 172.83 214.15   Z"/>
<path fill="#ffffff" d="   M 190.11 209.47   C 198.78 202.38 197.26 216.33 197.25 219.66   Q 197.25 220.33 196.59 220.42   L 195.92 220.51   Q 195.30 220.60 195.29 219.97   L 195.12 211.08   A 1.11 1.10 -79.0 0 0 194.46 210.10   Q 191.80 208.96 190.27 211.14   Q 190.00 211.51 190.00 211.97   L 190.00 219.71   A 0.59 0.59 0.0 0 1 189.55 220.28   L 188.39 220.54   Q 187.78 220.69 187.77 220.06   C 187.74 217.23 188.41 211.98 186.68 209.67   Q 186.33 209.20 185.78 209.42   L 183.01 210.56   A 0.84 0.82 79.0 0 0 182.50 211.33   L 182.50 219.72   Q 182.50 220.36 181.86 220.42   L 180.92 220.52   Q 180.25 220.59 180.25 219.91   L 180.25 208.54   Q 180.25 208.03 180.76 207.99   Q 181.77 207.92 182.07 208.93   A 0.53 0.52 -28.4 0 0 182.92 209.18   Q 186.29 206.21 189.27 209.41   Q 189.66 209.84 190.11 209.47   Z"/>
<path fill="#ffffff" d="   M 202.99 216.59   C 204.51 219.05 206.61 219.32 209.16 218.26   A 0.62 0.61 73.5 0 1 210.00 218.72   Q 210.13 219.42 209.51 219.71   C 200.00 224.12 197.27 209.75 204.71 207.98   C 208.79 207.02 211.31 210.21 210.64 214.23   Q 210.55 214.81 209.97 214.82   L 203.85 214.99   A 1.05 1.04 73.4 0 0 202.99 216.59   Z   M 203.18 213.00   L 208.56 213.02   A 0.41 0.41 0.0 0 0 208.97 212.62   L 208.97 212.55   A 3.01 3.00 0.3 0 0 205.98 209.53   L 205.80 209.53   A 3.01 3.00 0.3 0 0 202.77 212.51   L 202.77 212.58   A 0.41 0.41 0.0 0 0 203.18 213.00   Z"/>
<path fill="#ffffff" d="   M 265.63 209.57   C 261.77 209.67 262.68 217.07 262.73 219.55   A 0.93 0.92 89.4 0 1 261.81 220.50   L 261.40 220.50   A 0.61 0.60 89.5 0 1 260.80 219.90   L 260.65 208.48   A 0.52 0.51 -79.6 0 1 261.36 207.99   L 262.68 208.53   Q 263.13 208.71 263.57 208.53   Q 266.14 207.47 270.63 209.47   A 0.07 0.05 -54.2 0 0 270.69 209.45   Q 273.77 206.39 277.29 209.15   A 1.30 1.28 -72.3 0 1 277.79 210.13   L 278.09 219.31   Q 278.12 220.18 277.25 220.18   L 276.43 220.18   A 0.68 0.68 0.0 0 1 275.75 219.50   L 275.75 211.80   A 2.06 2.05 89.5 0 0 273.66 209.74   Q 271.81 209.77 270.69 211.23   Q 270.41 211.59 270.40 212.04   L 270.18 219.36   A 0.95 0.94 -9.2 0 1 269.55 220.22   Q 268.91 220.45 268.54 220.07   Q 268.28 219.82 268.27 219.22   Q 268.25 215.41 268.22 212.08   A 2.53 2.52 89.0 0 0 265.63 209.57   Z"/>
<path fill="#ffffff" d="   M 284.54 218.08   Q 287.06 219.32 290.00 218.37   A 0.46 0.46 0.0 0 1 290.52 219.07   Q 289.51 220.48 287.17 220.42   Q 281.03 220.25 281.24 213.73   C 281.52 204.90 293.44 206.80 290.97 214.22   A 0.78 0.78 0.0 0 1 290.23 214.75   L 284.00 214.75   A 2.06 1.35 47.6 0 0 284.54 218.08   Z   M 283.45 213.12   L 289.42 212.91   A 0.24 0.24 0.0 0 0 289.65 212.67   L 289.65 212.53   A 3.28 3.23 88.0 0 0 286.31 209.36   L 286.31 209.36   A 3.28 3.23 88.0 0 0 283.19 212.75   L 283.20 212.89   A 0.24 0.24 0.0 0 0 283.45 213.12   Z"/>
<rect fill="#ffffff" x="-5.00" y="-1.13" transform="translate(110.00,211.38) rotate(0.1)" width="10.00" height="2.26" rx="0.60"/>
<rect fill="#ffffff" x="-4.27" y="-0.91" transform="translate(314.92,211.17) rotate(-1.4)" width="8.54" height="1.82" rx="0.27"/>
</svg>